<?xml version="1.0"?>
<svg xmlns="http://www.w3.org/2000/svg" id="fill" viewBox="0 0 64 64" width="512" height="512"><path d="M4,55l8.227-13.987A6.114,6.114,0,0,1,17.5,38H46.5a6.114,6.114,0,0,1,5.269,3.013L60,55Z" style="fill:#e3e3ff"/><path d="M4,55l8.227-13.987A6.114,6.114,0,0,1,17.5,38H46.5a6.114,6.114,0,0,1,5.269,3.013h0a9.282,9.282,0,0,1-8,13.987Z" style="fill:#f8f8fe"/><circle cx="32" cy="21" r="18" style="fill:#376de3"/><rect x="31" y="45" width="2" height="8" style="fill:#e3e3ff"/><path d="M24,12l3,3-3,3,3,6h4l4-1,3,2-1,4h2l4-5,1-7-1-3-3-2,2-3,2.276-1.138A17.935,17.935,0,0,0,20.84,6.893L24,9Z" style="fill:#2298d1"/><path d="M33,32l-4,2V30l-3-2H22l-1-4H18l-2.966,2.966A17.928,17.928,0,0,0,37.98,37.961L36,34Z" style="fill:#2298d1"/><path d="M61,61H39.243A10.242,10.242,0,0,1,32,58h0a10.242,10.242,0,0,1-7.243,3H3l1-6,20.875-5.01A7.576,7.576,0,0,1,32,52h0a7.576,7.576,0,0,1,7.125-2.01L60,55Z" style="fill:#b1a6d8"/><polygon points="23 42 32 47 41 42 38 42 38 32 26 32 26 42 23 42" style="fill:#f8cc5c"/><path d="M60.855,54.5l.007,0L52.635,40.507A7.14,7.14,0,0,0,46.5,37H42.249a19,19,0,1,0-20.5,0H17.5a7.14,7.14,0,0,0-6.131,3.507L3.138,54.493l.007,0a.985.985,0,0,0-.131.339l-1,6A1,1,0,0,0,3,62H24.758A11.156,11.156,0,0,0,32,59.357,11.156,11.156,0,0,0,39.242,62H61a1,1,0,0,0,.986-1.164l-1-6A.985.985,0,0,0,60.855,54.5ZM46.5,39a5.13,5.13,0,0,1,4.406,2.521l7.034,11.957-18.586-4.46A8.622,8.622,0,0,0,33,49.986v-2.4l8.485-4.714A1,1,0,0,0,41,41H39V39Zm-9.06,3.831L32,45.856l-5.444-3.025A1,1,0,0,0,27,42V33H37v9A1,1,0,0,0,37.444,42.831ZM32,4A16.9,16.9,0,0,1,42.48,7.642l-.927.463a1.018,1.018,0,0,0-.385.34l-2,3a1,1,0,0,0,.277,1.387l2.715,1.81.817,2.45-.928,6.5L38.52,28h-.239l.689-2.758a1,1,0,0,0-.415-1.074l-3-2a1,1,0,0,0-.8-.138L30.877,23H27.618l-2.4-4.8,2.49-2.49a1,1,0,0,0,0-1.414L25,11.586V9a1,1,0,0,0-.445-.832L22.586,6.856A16.9,16.9,0,0,1,32,4ZM15,21A16.953,16.953,0,0,1,20.911,8.143L23,9.535V12a1,1,0,0,0,.293.707L25.586,15l-2.293,2.293a1,1,0,0,0-.188,1.154l3,6A1,1,0,0,0,27,25h4a.984.984,0,0,0,.242-.03l3.571-.893,2.046,1.364-.829,3.317A1,1,0,0,0,37,30h2a1,1,0,0,0,.781-.375l4-5a1,1,0,0,0,.209-.483l1-7a.987.987,0,0,0-.042-.458l-1-3a1,1,0,0,0-.393-.516l-2.168-1.445,1.3-1.948,1.409-.7A16.984,16.984,0,0,1,39,36.493V32a1,1,0,0,0-1-1H30V30a1,1,0,0,0-.445-.832l-3-2A1.006,1.006,0,0,0,26,27H22.781l-.811-3.242A1,1,0,0,0,21,23H18a1,1,0,0,0-.707.293l-1.79,1.79A16.979,16.979,0,0,1,15,21Zm1.19,6.224L18.414,25h1.8l.811,3.242A1,1,0,0,0,22,29h3.7L28,30.535V31H26a1,1,0,0,0-1,1v4.494A17.036,17.036,0,0,1,16.19,27.224Zm-3.1,14.3A5.13,5.13,0,0,1,17.5,39H25v2H23a1,1,0,0,0-.485,1.874L31,47.588v2.4a8.633,8.633,0,0,0-6.358-.968L6.056,53.478ZM39.242,60a9.18,9.18,0,0,1-6.535-2.707,1,1,0,0,0-1.414,0A9.18,9.18,0,0,1,24.758,60H4.181l.7-4.183,20.23-4.854a6.619,6.619,0,0,1,6.185,1.744,1,1,0,0,0,1.414,0,6.618,6.618,0,0,1,6.185-1.744l20.23,4.854.7,4.183Z"/></svg>
